<?xml version="1.0" encoding="UTF-8" standalone="no"?>
<!DOCTYPE svg PUBLIC "-//W3C//DTD SVG 1.1//EN" "http://www.w3.org/Graphics/SVG/1.1/DTD/svg11.dtd">
<svg width="100%" height="100%" viewBox="0 0 486 464" version="1.1" xmlns="http://www.w3.org/2000/svg" xmlns:xlink="http://www.w3.org/1999/xlink" xml:space="preserve" xmlns:serif="http://www.serif.com/" style="fill-rule:evenodd;clip-rule:evenodd;stroke-linejoin:round;stroke-miterlimit:2;">
    <g transform="matrix(1,0,0,1,-52.329,-10.8409)">
        <g transform="matrix(1.30511,0,0,1.30511,-91.4933,-14.2172)">
            <path d="M271.1,35.6C275.7,38.6 280.8,39.7 286.1,39.9C289.8,40.1 293.6,39.7 297.4,39.3C301.4,38.8 305.1,37.5 308.5,35.2C313.2,32.1 313.5,27.5 308.9,24.3C306.6,22.7 303.9,21.7 301.3,20.7C299.3,19.9 297,19.7 294.9,19.2L284.2,19.2C283.8,19.4 283.5,19.7 283.1,19.8C281.1,20.2 279,20.5 277,21C273.9,21.9 271,23.2 268.7,25.6C267.3,27.1 266.5,28.9 267.3,31C267.9,33.1 269.3,34.5 271.1,35.6Z" style="fill:rgb(17,108,114);fill-rule:nonzero;"/>
        </g>
        <g transform="matrix(1.30511,0,0,1.30511,-91.4933,-14.2172)">
            <path d="M329.8,373.4C332.7,372.3 335.5,370.9 338.3,369.5C361,358.1 383.6,346.8 406.3,335.4C420.5,328.3 434.7,321 449,314.1C457.5,310 465.2,305 470.7,297.2C477.9,287.1 482.2,276 482.2,263.5L482.2,125.5C482.2,121.2 482,116.8 481.9,112.5C481.8,108.5 480.7,104.8 478.8,101.3C475.6,95.6 470.7,92.3 464,92.3C460,92.3 456.4,93.5 452.8,95.1C448.7,97 444.6,98.8 440.5,100.7C434.9,103.2 429.3,105.7 423.7,108.2C418.8,110.4 413.9,112.7 409,114.8C403.2,117.4 397.4,119.9 391.6,122.4C386.7,124.6 381.8,126.9 376.9,129C368.1,132.9 359.2,136.8 350.4,140.7C346,142.7 341.6,144.7 337.1,146.6C332,148.7 327.4,151.5 323.6,155.5C321.4,157.8 319.5,160.3 317.7,162.8C314.6,167 312.4,171.7 310.5,176.5C309.7,178.7 309.1,181 308.4,183.3C315.4,181.6 321.3,182.6 326.3,187.8C330.3,192 331.4,198.1 329.1,203.3C326.9,208.3 323.1,212.2 318.9,215.5C315.6,218.2 311.7,220 307.8,221.5C307.5,221.6 307,222.1 307,222.5C306.9,224.4 307,226.3 307,228.4C307.5,228.3 307.9,228.2 308.2,228.1C309.7,227.8 311.1,227.2 312.6,227.2C317.9,226.9 322.5,228.4 326.2,232.3C330,236.3 331.4,241.1 329.7,246.4C327.8,252.4 323.4,256.6 318.6,260.3C315.4,262.9 311.7,264.6 307.8,266C307.5,266.1 307.1,266.5 307.1,266.8C307,268.9 307.1,270.9 307.1,273.1C307.5,273 307.8,272.9 308,272.8C311,271.6 314.1,271.5 317.1,271.9C320.9,272.4 324,274.3 326.6,277.2C330.4,281.4 331.4,286.3 329.7,291.5C328.1,296.2 324.7,299.9 321.1,303.1C317.3,306.4 312.9,308.9 308.1,310.7C307.7,310.8 307.3,311.4 307.3,311.8C307.2,313.7 307.3,315.5 307.3,317.5C307.6,317.5 307.7,317.6 307.8,317.5C315,315 321.3,316.2 326.7,321.8C330.5,325.8 331.6,331.7 329.5,336.6C327.3,341.9 323.4,345.9 319,349.3C315.8,351.8 312.2,353.6 308.4,355C308,355.1 307.6,355.8 307.6,356.2C308.2,360.1 309.2,364 311.5,367.3C312.6,368.8 313.9,370.4 315.4,371.5C319.6,374.7 324.6,375.2 329.8,373.4ZM440,284.8C438.6,285.9 437,286.8 435.4,287.3C429.8,289.3 425.4,286.5 423.8,280.6C421.2,271 428,258 435.2,253.6C437.8,252 440.5,251.1 443.5,251.5C446.5,251.9 448.5,253.8 449.6,256.5C450.4,258.6 450.7,260.8 451.1,262.3C450.2,271.9 446.9,279.2 440,284.8ZM423.8,153.7C425.1,147.5 428,142.2 432.7,138C434.8,136.1 437.2,134.8 440,134.2C443.7,133.5 447,135 448.9,138.2C450.4,140.7 450.6,143.6 450.8,146.7C450.2,154.6 447,161.5 440.8,166.9C438.6,168.8 436,170 433.1,170.5C430.2,171 426.7,169.1 425,166.2C422.9,162.2 422.8,158 423.8,153.7ZM364.7,311.9C362.8,318.1 359.7,323.5 354.2,327.2C352.3,328.5 350,329.5 347.7,329.9C344.6,330.4 342.1,328.7 340.4,326.1C339.1,324.1 338.3,320.8 338.3,317C338.8,311.1 340.9,305.1 344.9,299.8C347,297.1 349.5,294.9 352.6,293.4C357.6,291.1 362.7,292.9 364.7,298.3C366.5,302.9 366.1,307.5 364.7,311.9ZM349.1,175.7C351.7,173.6 354.7,172.2 358.1,172.7C362.1,173.3 365.1,177 365.6,181.3C366.6,189.2 364.2,196.1 359.6,202.3C356.8,206 353.4,208.8 348.6,209.7C346,210.2 343.8,209.4 342.2,207.7C340.9,206.3 340,204.5 339.2,202.7C338.6,201.1 338.5,199.3 338.2,198C339.1,188.9 342.1,181.3 349.1,175.7Z" style="fill:rgb(17,108,114);fill-rule:nonzero;"/>
        </g>
        <g transform="matrix(1.30511,0,0,1.30511,-91.4933,-14.2172)">
            <path d="M146.7,315.8C163.6,324.3 180.5,332.8 197.4,341.2C214.8,349.9 232.1,358.6 249.5,367.2C254.3,369.6 258.9,372.6 264.3,373.8C268,374.7 271.5,374.4 274.8,372.8C280.3,370.2 282.8,365.4 284.4,359.9C284.8,358.6 284.9,357.3 285.1,356C275.3,353.2 267.6,348 262.3,339.6C260,336 259.2,332 260.3,327.7C263.1,317.6 274.5,313.8 283.1,317.9C283.8,318.3 284.6,318.6 285.4,319C285.4,317 285.3,315.2 285.4,313.4C285.6,311.9 284.8,311.4 283.5,311C274,308.1 266.6,302.6 261.5,294C259.7,290.9 259.2,287.5 259.8,284.2C260.6,280.2 262.8,276.9 266.3,274.5C270.4,271.7 274.9,271.3 279.6,272.1C281.5,272.4 283.3,273.4 285.3,274.1L285.3,266.8C284.9,266.7 284.5,266.6 284,266.4C281.6,265.5 279,264.9 276.8,263.6C271.2,260.5 266.4,256.6 262.7,251.2C260,247.1 258.8,242.9 260.2,238.1C261.4,233.8 264.1,230.7 267.9,228.7C272.1,226.5 276.7,226.3 281.3,227.8C282.2,228.1 283,228.4 283.9,228.7C284.4,228.5 284.8,228.3 285.3,228.1L285.3,223.5C285.3,222.6 285.1,222.2 284.1,221.9C279.6,220.6 275.3,218.8 271.5,215.9C267.9,213.1 264.6,210 262.2,206.1C260.5,203.4 259.2,200.6 259.5,197.3C259.6,196.8 259.5,196.2 259.5,195.7C259.5,195.3 259.3,194.8 259.4,194.4C259.5,193.9 259.9,193.5 260.1,193.1C262,188.4 265.1,185 270,183.4C270.6,183.2 271.2,182.7 271.7,182.5C275.9,182.6 280.1,182.1 284.1,184.8C283.4,182.2 282.8,180 282.1,178C281.4,176.1 280.5,174.3 279.8,172.4C277.4,166.2 273.6,161 269.1,156.1C265.3,151.9 260.6,149 255.4,147C254.2,146.5 253.1,145.9 251.9,145.4C250.7,144.9 249.4,144.6 248.2,144C246.8,143.4 245.5,142.6 244.1,141.9C243.1,141.4 242.1,140.9 241.1,140.5C239.8,140 238.5,139.7 237.2,139.1C235.7,138.4 234.4,137.5 232.9,136.8C230.8,135.8 228.6,135 226.5,134.1C225.4,133.7 224.3,133.3 223.3,132.8C220.9,131.6 218.5,130.4 216,129.2C214.8,128.6 213.4,128.3 212.2,127.7C210.8,127.1 209.5,126.3 208.1,125.7C206.7,125.1 205.3,124.7 203.9,124.1C202.6,123.5 201.5,122.8 200.2,122.2C198.9,121.6 197.5,121.1 196.2,120.6C195,120.1 193.9,119.7 192.7,119.2C191.4,118.6 190.1,117.8 188.8,117.2C188.3,117 187.7,117 187.2,116.7C185.7,116 184.2,115.1 182.7,114.4C180.1,113.2 177.4,112 174.8,110.9C171.7,109.6 168.6,108.2 165.5,106.9C163.5,106.1 161.5,105.4 159.6,104.5C158.1,103.8 156.7,102.9 155.1,102.2C153,101.2 150.8,100.4 148.7,99.5C147.6,99.1 146.5,98.7 145.5,98.2C144,97.5 142.5,96.6 141,95.9C139.8,95.3 138.4,95.1 137.2,94.4C134.5,92.7 131.5,92.3 128.5,92.2C125.5,92 122.6,92.9 119.9,94.3C119.8,94.4 119.7,94.4 119.6,94.5C119.4,94.6 119.2,94.7 119,94.9C118.9,95 118.8,95.1 118.7,95.1C115.7,97 114,100 112.5,103.1C112.4,103.2 112.3,103.3 112.3,103.4C110.1,108.6 110.2,114.1 110.2,119.7L110.2,262.4C110.2,265.5 110.3,268.7 110.9,271.7C111.7,275.8 112.6,280 114.2,283.9C117.5,291.8 121.8,299.1 128.4,304.7C130.9,306.8 133.6,308.5 136.2,310.4C136.3,310.5 136.4,310.5 136.5,310.6C136.6,310.6 136.7,310.7 136.8,310.7C136.9,310.8 137,310.8 137.1,310.9C137.2,310.9 137.3,311 137.4,311C137.5,311.1 137.6,311.1 137.7,311.2C137.8,311.2 137.9,311.3 138,311.3C138.1,311.4 138.2,311.4 138.3,311.5C138.4,311.5 138.5,311.6 138.6,311.6C138.7,311.7 138.8,311.7 138.9,311.8C139,311.8 139.1,311.9 139.2,311.9C139.3,312 139.4,312 139.5,312.1C139.6,312.1 139.7,312.2 139.8,312.2C139.9,312.3 140,312.3 140.1,312.4C140.2,312.4 140.3,312.5 140.4,312.5C140.5,312.6 140.6,312.6 140.7,312.7C140.8,312.7 140.9,312.8 141,312.8C141.1,312.9 141.2,312.9 141.3,313C141.4,313 141.5,313.1 141.6,313.1C141.7,313.2 141.8,313.2 141.9,313.3C142,313.3 142.1,313.4 142.2,313.4C142.3,313.5 142.4,313.5 142.5,313.6C142.6,313.6 142.7,313.7 142.8,313.7C142.9,313.8 143,313.8 143.1,313.9C143.2,313.9 143.3,314 143.4,314C143.5,314.1 143.6,314.2 143.7,314.3C143.8,314.3 143.9,314.4 144,314.4C144.1,314.5 144.2,314.5 144.3,314.6C144.4,314.6 144.5,314.7 144.6,314.7C144.7,314.8 144.8,314.8 144.9,314.9C145,314.9 145.1,315 145.2,315C145.3,315.1 145.4,315.1 145.5,315.2C146,315.4 146.3,315.6 146.7,315.8ZM125.9,219.3C124.8,216.2 123.9,213.1 123,210C122.7,208.8 122.5,207.6 122.4,206.3C122.2,202.7 122,199 122.1,195.4C122.2,193.1 123,190.8 123.4,188.5C123.6,187.5 123.9,186.4 124.1,185.4C124.2,185.1 124.4,184.8 124.6,184.5C125,183.6 125.5,182.6 125.9,181.7C126,181.5 126,181.2 126.2,181.1C127.6,179.5 128.9,177.9 130.4,176.4C131.9,175 133.5,173.7 135.2,172.6C139.1,170 143.4,168.4 148,167.6C148.4,167.5 148.8,167.3 149.2,167.1C149.5,167 149.9,166.6 150.1,166.7C152.2,167.5 154.3,166.9 156.4,166.9C162.1,166.9 167.6,168 173.1,169.1C176.2,169.7 178.9,171.5 182,172C182.1,172.1 182.2,172.2 182.3,172.2C183.2,172.5 184.1,172.8 185,173.1C185.1,173.2 185.2,173.3 185.3,173.3C188.1,173.7 190.1,175.8 192.7,176.7C194.2,177.2 195.6,177.9 196.8,178.9C196.9,179 197,179 197.1,179.1C197.2,179.1 197.3,179.2 197.4,179.2C197.5,179.3 197.6,179.3 197.7,179.4C198.1,179.6 198.5,179.8 198.8,180.1C198.9,180.2 199,180.2 199.1,180.3C199.5,180.5 199.9,180.8 200.3,181C200.4,181.1 200.5,181.2 200.6,181.2C200.8,181.3 201,181.5 201.2,181.6C201.3,181.7 201.4,181.7 201.5,181.8C202.9,182.6 204.3,183.2 205.6,184.1C206.4,184.6 207,185.4 207.7,186C207.8,186.1 207.9,186.2 208,186.2C208.3,186.4 208.6,186.7 208.9,186.9C209,187 209.1,187 209.2,187.1C209.5,187.3 209.8,187.6 210.1,187.8C210.2,187.9 210.3,187.9 210.4,188C215.4,192.6 220.7,196.9 225.4,201.8C233.4,210.2 240.1,219.5 244.8,230.2C245,230.7 245.2,231.2 245.4,231.6C245.5,231.7 245.6,231.8 245.6,231.9C247,236.4 248.6,240.9 249.8,245.5C251.1,250.2 251.2,255.2 250.9,260C250.4,266.4 248.3,272.4 244.1,277.3C242.2,279.6 239.6,281.3 237.3,283.2C237.2,283.3 237.1,283.3 237,283.4C236.4,283.7 235.8,284.1 235.3,284.4C235.2,284.5 235.1,284.5 235,284.6C234.9,284.6 234.8,284.7 234.7,284.7C234.6,284.8 234.5,284.8 234.4,284.9C232.2,285.6 232.1,285.7 232.8,287.9C233.4,289.7 234.1,291.5 234.8,293.2C234.9,293.3 235,293.4 235,293.5C235.2,294.1 235.4,294.7 235.7,295.3C235.8,295.4 235.9,295.5 235.9,295.6C238.4,301.5 241.8,307 245.5,312.7C244.8,312.5 244.3,312.4 244,312.2C240.5,310.1 237,308.1 233.7,305.7C226.7,300.8 220.1,295.5 214,289.4C213.5,288.9 212.8,288.6 212.1,288.5C209.8,288.1 207.5,287.8 205.2,287.6C201.4,287.2 198,285.4 194.4,284.9C192.4,284.6 191,283.3 189.2,282.7C182.9,280.5 177.1,277.1 171.5,273.5C162.4,267.8 154.4,260.9 147.1,253C138.1,243.3 130.6,232.2 125.9,219.3Z" style="fill:rgb(17,108,114);fill-rule:nonzero;"/>
        </g>
        <g transform="matrix(1.30511,0,0,1.30511,-91.4933,-14.2172)">
            <path d="M320.2,326C316.1,322.4 309.6,322.9 306.6,327.7C303.9,332 299.8,334.2 294.8,334.2C290.2,334.1 286.4,332.1 283.7,328.2C282.1,325.9 280.3,324.2 277.4,323.7C274.1,323.2 271.2,324 269.1,326.5C266.8,329.2 266.7,332.8 268.5,335.7C271.2,340.1 274.8,343.6 279.4,346C284.9,348.9 290.7,350.4 297,349.9C301.1,349.6 304.9,348.6 308.5,346.9C312.6,345 316.1,342.3 318.9,338.7C320.6,336.5 322.4,334.4 322.2,331.6C322.4,329.4 321.7,327.4 320.2,326Z" style="fill:rgb(17,108,114);fill-rule:nonzero;"/>
        </g>
        <g transform="matrix(1.30511,0,0,1.30511,-91.4933,-14.2172)">
            <path d="M320.2,203.6C321.7,201.5 322.7,199.4 322.3,196.8C321.9,194.8 321.2,193.1 319.4,191.7C317,189.9 314.3,189.7 311.7,190.2C310.1,190.5 308.1,191.6 307.3,193C304.4,197.7 300.4,200.4 295,200.4C290.2,200.4 286.3,198.3 283.5,194.2C281.7,191.5 279.4,189.7 276.2,190.1L275.2,190.1C272.1,190 269.9,191.4 268.4,194C266.9,196.7 267,199.4 268.6,202C271.3,206.5 275.1,210 279.8,212.5C285.3,215.3 291.1,216.9 297.4,216.3C301,216 304.3,215.3 307.6,213.8C312.7,211.5 316.9,208.1 320.2,203.6Z" style="fill:rgb(17,108,114);fill-rule:nonzero;"/>
        </g>
        <g transform="matrix(1.30511,0,0,1.30511,-91.4933,-14.2172)">
            <path d="M320,293.1C322.2,290.3 323.2,287.2 321.7,283.7C320.3,280.5 317.4,279.3 314.2,279.2C311.3,279.1 308.7,280.2 306.8,282.8C305.6,284.5 304.2,286.1 302.6,287.3C300.1,289.2 297,290.1 294,289.7C289.4,289 285.6,286.9 283,282.7C280.5,278.7 274.9,277.9 270.9,280.6C267.2,283.2 266.3,287.8 269.1,291.8C275.4,301.1 284.3,305.3 296.2,305.6C297.7,305.4 300.1,305.2 302.4,304.7C309.7,303 315.5,299 320,293.1Z" style="fill:rgb(17,108,114);fill-rule:nonzero;"/>
        </g>
        <g transform="matrix(1.30511,0,0,1.30511,-91.4933,-14.2172)">
            <path d="M321.4,246.3C323.7,242.5 322.2,236.9 317.5,235.2C312.9,233.5 309,234.9 306.1,239.2C303.7,242.8 300.2,244.8 296,244.9C290.8,245.1 286.5,243.1 283.5,238.6C281.7,235.9 279.4,234.3 276,234.6C272.6,234.3 270.2,235.8 268.5,238.6C266.8,241.6 267.3,244.5 269.2,247.2C270,248.3 270.7,249.4 271.6,250.4C278.7,258.1 287.4,261.3 297.8,260.7C303,260.4 307.6,258.5 312,255.9C316,253.6 319,250.2 321.4,246.3Z" style="fill:rgb(17,108,114);fill-rule:nonzero;"/>
        </g>
        <g transform="matrix(1.30511,0,0,1.30511,-91.4933,-14.2172)">
            <path d="M379.7,85.7C384.9,88.9 390.7,89.7 396.5,90C400,90.2 403.5,89.6 406.9,89.1C410.8,88.5 414.4,87 417.6,84.6C421.1,81.9 421.4,78 418.2,75C416.8,73.8 415.2,72.8 413.5,72C408.6,69.9 403.4,69 398,69.1C395.7,69.3 393.4,69.3 391.1,69.6C386.6,70.2 382.3,71.4 378.5,74.1C376.6,75.5 374.9,78.8 375.4,80.4C376.2,82.7 377.6,84.4 379.7,85.7Z" style="fill:rgb(17,108,114);fill-rule:nonzero;"/>
        </g>
        <g transform="matrix(1.30511,0,0,1.30511,-91.4933,-14.2172)">
            <path d="M226.2,104.6C231,108.3 236.8,109.2 242.6,109.6C246.1,109.9 249.6,109.4 253.1,109C257.3,108.5 261.4,107.1 264.9,104.6C269.1,101.6 269.1,97 264.9,94C264.2,93.5 263.5,93 262.7,92.6C257.3,89.8 251.5,88.9 245.5,88.9C243.6,89 241.7,89.1 239.8,89.3C234.8,90 229.9,91 225.8,94.3C221.8,97.6 222.5,101.8 226.2,104.6Z" style="fill:rgb(17,108,114);fill-rule:nonzero;"/>
        </g>
        <g transform="matrix(1.30511,0,0,1.30511,-91.4933,-14.2172)">
            <path d="M174.6,81.2C179.7,84.1 185.3,84.7 191,85.1C192.7,85.2 194.4,84.9 197,84.8C200.7,84.3 205.1,83.5 209.1,81.4C209.9,81 210.6,80.4 211.3,79.9C215.6,76.7 215.6,72.3 211.2,69.2C206.8,66.1 201.7,64.9 196.5,64.5C193.1,64.2 189.7,64.5 186.4,64.7C181.2,65 176.3,66.3 172.2,69.7C170.4,71.1 169.3,73.1 169.8,75.6C170.2,78.4 172.3,79.9 174.6,81.2Z" style="fill:rgb(17,108,114);fill-rule:nonzero;"/>
        </g>
        <g transform="matrix(1.30511,0,0,1.30511,-91.4933,-14.2172)">
            <path d="M324.6,60.3C328.8,63.1 333.6,64.2 338.4,64.6C342.7,65 347,65 351.3,64.1C355.6,63.2 359.8,62 363.2,59.1C366.2,56.5 366.5,52.9 363.7,50.2C362.8,49.3 361.7,48.5 360.5,47.9C355.1,45 349.2,44 343,44.4C339.2,44.1 335.3,44.5 331.5,45.6C328.1,46.5 324.9,47.7 322.5,50.4C321.3,51.8 320.3,53.3 320.8,55.3C321.2,57.4 322.7,59 324.6,60.3Z" style="fill:rgb(17,108,114);fill-rule:nonzero;"/>
        </g>
        <g transform="matrix(1.30511,0,0,1.30511,-91.4933,-14.2172)">
            <path d="M288.9,115.7C285.4,116.4 282.1,117.8 279.7,120.5C278.7,121.6 277.8,123.3 278,124.6C278.3,126.3 279.3,128.2 280.6,129.4C282.3,130.9 284.5,132 286.6,132.8C291,134.5 295.6,135.1 300.3,134.9C300.3,135 300.3,135.2 300.4,135.3C304,134.8 307.6,134.4 311.2,133.7C315,132.9 318.6,131.4 321.3,128.4C323.3,126.2 323.4,123.4 321.6,121.1C320,119.1 317.9,117.9 315.7,116.9C311,114.9 306,114.3 301,114.3C297,114.3 292.9,115 288.9,115.7Z" style="fill:rgb(17,108,114);fill-rule:nonzero;"/>
        </g>
    </g>
</svg>
